<svg xmlns="http://www.w3.org/2000/svg" width="664.368" height="507.077" viewBox="0 0 175.781 134.164"><g transform="translate(-20.135 -24.784)" paint-order="fill markers stroke"><rect width="81.492" height="11.642" x="71.198" y="-15.534" rx="6.615" ry="6.615" transform="rotate(30.365)" opacity=".5" fill="#e6e6e6" stroke="#b3c4dd" stroke-width=".265" stroke-linecap="round" stroke-linejoin="round" stroke-opacity=".226"/><rect width="46.567" height="11.642" x="129.406" y="7.75" rx="6.615" ry="6.615" transform="rotate(30.365)" opacity=".5" fill="#e6e6e6" stroke="#b3c4dd" stroke-width=".265" stroke-linecap="round" stroke-linejoin="round" stroke-opacity=".226"/><rect width="69.85" height="11.642" x="47.915" y="7.75" rx="6.615" ry="6.615" transform="rotate(30.365)" opacity=".5" fill="#e6e6e6" stroke="#b3c4dd" stroke-width=".265" stroke-linecap="round" stroke-linejoin="round" stroke-opacity=".226"/><rect width="11.642" height="11.642" x="175.973" y="54.316" rx="6.615" ry="6.615" transform="rotate(30.365)" opacity=".5" fill="#e6e6e6" stroke="#b3c4dd" stroke-width=".265" stroke-linecap="round" stroke-linejoin="round" stroke-opacity=".226"/><rect width="11.642" height="11.642" x="164.331" y="-15.534" rx="6.615" ry="6.615" transform="rotate(30.365)" opacity=".5" fill="#e6e6e6" stroke="#b3c4dd" stroke-width=".265" stroke-linecap="round" stroke-linejoin="round" stroke-opacity=".226"/><rect width="46.567" height="11.642" x="117.765" y="31.033" rx="6.615" ry="6.615" transform="rotate(30.365)" opacity=".5" fill="#e6e6e6" stroke="#b3c4dd" stroke-width=".265" stroke-linecap="round" stroke-linejoin="round" stroke-opacity=".226"/><rect width="58.208" height="11.642" x="47.915" y="31.033" rx="6.615" ry="6.615" transform="rotate(30.365)" opacity=".5" fill="#e6e6e6" stroke="#b3c4dd" stroke-width=".265" stroke-linecap="round" stroke-linejoin="round" stroke-opacity=".226"/><rect width="58.208" height="11.642" x="106.123" y="54.316" rx="6.615" ry="6.615" transform="rotate(30.365)" opacity=".5" fill="#e6e6e6" stroke="#b3c4dd" stroke-width=".265" stroke-linecap="round" stroke-linejoin="round" stroke-opacity=".226"/><rect width="23.283" height="11.642" x="59.556" y="54.316" rx="6.615" ry="6.615" transform="rotate(30.365)" opacity=".5" fill="#e6e6e6" stroke="#b3c4dd" stroke-width=".265" stroke-linecap="round" stroke-linejoin="round" stroke-opacity=".226"/><path d="M54.045 29.394a6.594 6.594 0 0 0-4.035 3.062L27.272 71.265a6.6 6.6 0 0 0 2.364 9.05l89.032 52.163a6.6 6.6 0 0 0 9.05-2.363l22.738-38.81a6.584 6.584 0 0 0 .886-3.855l-70.494 18.408a6.693 6.693 0 0 1-2.627.15 6.584 6.584 0 0 1-3.419-1.58 6.581 6.581 0 0 1-2.026-3.299z" fill="none" stroke="#3771c8" stroke-width="3.965" stroke-linecap="round" stroke-linejoin="round" stroke-opacity=".983"/><path d="M54.045 29.394l18.731 71.735a6.693 6.693 0 0 0 1.153 2.365 6.58 6.58 0 0 0 1.9 1.676 6.614 6.614 0 0 0 2.392.838 6.577 6.577 0 0 0 2.627-.15l70.494-18.408a6.59 6.59 0 0 0-3.249-5.195L59.061 30.092a6.594 6.594 0 0 0-5.016-.698z" fill="none" stroke="#3771c8" stroke-width="3.965" stroke-linecap="round" stroke-linejoin="round"/><rect width="23.283" height="11.642" x="210.898" y="7.75" rx="6.615" ry="6.615" transform="rotate(30.365)" opacity=".5" fill="#3771c8" fill-opacity=".836"/><rect width="34.925" height="11.642" x="187.615" y="31.033" rx="6.615" ry="6.615" transform="rotate(30.365)" opacity=".5" fill="#3771c8" fill-opacity=".836"/><rect width="11.642" height="11.642" x="187.615" y="7.75" rx="6.615" ry="6.615" transform="rotate(30.365)" opacity=".5" fill="#5f8dd3" fill-opacity=".836"/><rect width="11.642" height="11.642" x="234.181" y="31.033" rx="6.615" ry="6.615" transform="rotate(30.365)" opacity=".5" fill="#3771c8" fill-opacity=".984"/><rect width="34.925" height="11.642" x="187.615" y="31.033" rx="6.615" ry="6.615" transform="rotate(30.365)" opacity=".5" fill="#3771c8" fill-opacity=".984"/><rect width="11.642" height="11.642" x="187.615" y="7.75" rx="6.615" ry="6.615" transform="rotate(30.365)" opacity=".5" fill="#3771c8" fill-opacity=".984"/><rect width="34.925" height="11.642" x="187.615" y="31.033" rx="6.615" ry="6.615" transform="rotate(30.365)" fill="#3771c8"/><rect width="11.642" height="11.642" x="187.615" y="7.75" rx="6.615" ry="6.615" transform="rotate(30.365)" fill="#3771c8"/><rect width="23.283" height="11.642" x="210.898" y="7.75" rx="6.615" ry="6.615" transform="rotate(30.365)" opacity=".5" fill="#3771c8" fill-opacity=".984"/><rect width="11.642" height="11.642" x="234.181" y="31.033" rx="6.615" ry="6.615" transform="rotate(30.365)" opacity=".5" fill="#3771c8" fill-opacity=".984"/><rect width="23.283" height="11.642" x="210.898" y="7.75" rx="6.615" ry="6.615" transform="rotate(30.365)" fill="#3771c8"/><rect width="11.642" height="11.642" x="234.181" y="31.033" rx="6.615" ry="6.615" transform="rotate(30.365)" fill="#3771c8"/></g></svg>